<?xml version="1.0" encoding="UTF-8"?>
<svg version="1.1" xmlns="http://www.w3.org/2000/svg" width="128" height="128">
<path d="M0 0 C1.78125 1.359375 1.78125 1.359375 3 3 C2.57894737 7.42105263 2.57894737 7.42105263 1 9 C-2.37106359 8.99245847 -5.72960745 8.92129882 -9.09765625 8.78515625 C-13.07216499 8.60119878 -13.07216499 8.60119878 -16.61865234 10.1171875 C-18.53778663 12.73301705 -19.08345042 15.23727942 -19.859375 18.3828125 C-20.17003906 19.63191406 -20.48070313 20.88101562 -20.80078125 22.16796875 C-20.95627441 22.81685059 -21.11176758 23.46573242 -21.27197266 24.13427734 C-21.75072143 26.12800435 -22.24706919 28.11673077 -22.74609375 30.10546875 C-23.97202236 35.03148494 -23.97202236 35.03148494 -25 40 C-24.505 40.495 -24.505 40.495 -24 41 C-23.31292969 40.50628906 -22.62585938 40.01257812 -21.91796875 39.50390625 C-21.01691406 38.86324219 -20.11585937 38.22257812 -19.1875 37.5625 C-18.29417969 36.92441406 -17.40085937 36.28632812 -16.48046875 35.62890625 C-12.30874673 32.88936597 -8.92420359 32.56805232 -4 33 C-1.09645714 34.98663459 -0.1975502 36.45673695 1 39.75 C1 44.36083237 -0.13194482 47.38250326 -3 51 C-8.77879081 55.70174019 -14.72560504 57.82671049 -22 59 C-21.01 59.680625 -20.02 60.36125 -19 61.0625 C-14.02551062 65.25687597 -11.5601135 70.92143128 -8.69921875 76.63671875 C-7.07738402 80.01380855 -7.07738402 80.01380855 -5 83 C-4.49210937 82.59007813 -3.98421875 82.18015625 -3.4609375 81.7578125 C2.81198678 76.84754593 7.79351682 74.25395607 16 75 C18.31279611 76.15639806 20.17409828 77.17409828 22 79 C22.1875 81.4375 22.1875 81.4375 22 84 C20 86 20 86 17.25 86.3125 C14 86 14 86 11 84.4375 C8.08453618 82.78597892 8.08453618 82.78597892 4.875 82.9375 C1.01580414 84.36372456 -0.04927593 86.4736911 -2 90 C-0.03443208 94.5518415 1.735815 97.38334102 6 100 C9.91280349 100.87700768 12.18323682 101.27225439 16 100 C15.979375 98.72125 15.95875 97.4425 15.9375 96.125 C15.875 92.25 15.875 92.25 17 90 C20.71599191 89.79913557 21.77208445 89.8480563 25 92 C25.57992559 95.7280931 25.33011448 97.47426212 23.3125 100.6875 C19.24381531 104.75618469 15.97236136 106.42991827 10.1875 106.4375 C4.47614714 106.31058105 -0.78239719 105.21760281 -5 101 C-6.7862433 106.35872991 -6.95841292 112.00330642 -4.5 117.125 C-4.005 117.74375 -3.51 118.3625 -3 119 C3.42946528 118.76620126 6.95745142 117.09770583 12.1171875 113.27734375 C14 112 14 112 16 112 C16.33 113.65 16.66 115.3 17 117 C14.94047642 118.29662538 12.87762943 119.58735727 10.8125 120.875 C9.9452832 121.42220703 9.9452832 121.42220703 9.06054688 121.98046875 C2.41906392 126.10794403 -3.13223264 128.29191582 -11 127 C-14.34625024 124.47323961 -15.67977847 122.96066458 -17 119 C-17.83880217 110.21320345 -16.1756329 103.14951576 -13 95 C-11.63974531 92.00948914 -11.63974531 92.00948914 -13.15234375 89.20703125 C-13.74144531 88.08683594 -14.33054687 86.96664062 -14.9375 85.8125 C-15.58650353 84.56409618 -16.23491658 83.31538526 -16.8828125 82.06640625 C-17.39956543 81.08051514 -17.39956543 81.08051514 -17.92675781 80.07470703 C-19.03841012 77.92574859 -20.11355466 75.76171956 -21.1796875 73.58984375 C-21.53554932 72.86627686 -21.89141113 72.14270996 -22.25805664 71.3972168 C-22.95191416 69.98427934 -23.64386228 68.57040235 -24.33374023 67.15551758 C-25.68935603 64.41861792 -26.82466998 62.17533002 -29 60 C-30.98 67.92 -32.96 75.84 -35 84 C-38.3 84 -41.6 84 -45 84 C-43.71878403 76.68974986 -42.25713963 69.4690866 -40.5390625 62.25 C-40.3072226 61.27063477 -40.07538269 60.29126953 -39.83651733 59.28222656 C-39.34896283 57.22814208 -38.85981909 55.17443422 -38.36914062 53.12109375 C-37.62724045 50.00939695 -36.89548124 46.89542481 -36.1640625 43.78125 C-35.68551597 41.77068563 -35.20636916 39.76026402 -34.7265625 37.75 C-34.40602402 36.37763184 -34.40602402 36.37763184 -34.07901001 34.97753906 C-30.9179397 21.8781186 -27.08933771 11.28561837 -16 3 C-10.93903507 0.14745613 -5.76817585 -1.14022081 0 0 Z M-18.8984375 42.40234375 C-25.70962453 47.50338358 -25.70962453 47.50338358 -29 55 C-22.18489909 54.74944482 -15.54765583 54.37972828 -10 50 C-8.16023654 47.12718323 -7.97091085 46.25210597 -8.375 42.75 C-8.58125 41.8425 -8.7875 40.935 -9 40 C-13.4143277 38.43394139 -15.20869217 39.92178462 -18.8984375 42.40234375 Z " fill="#C01C1C" transform="translate(79,1)"/>
<path d="M0 0 C1.78125 1.359375 1.78125 1.359375 3 3 C2.57894737 7.42105263 2.57894737 7.42105263 1 9 C-2.37106359 8.99245847 -5.72960745 8.92129882 -9.09765625 8.78515625 C-13.07216499 8.60119878 -13.07216499 8.60119878 -16.61865234 10.1171875 C-18.53778663 12.73301705 -19.08345042 15.23727942 -19.859375 18.3828125 C-20.17003906 19.63191406 -20.48070313 20.88101562 -20.80078125 22.16796875 C-20.95627441 22.81685059 -21.11176758 23.46573242 -21.27197266 24.13427734 C-21.75072143 26.12800435 -22.24706919 28.11673077 -22.74609375 30.10546875 C-23.97202236 35.03148494 -23.97202236 35.03148494 -25 40 C-24.505 40.495 -24.505 40.495 -24 41 C-23.31292969 40.50628906 -22.62585938 40.01257812 -21.91796875 39.50390625 C-21.01691406 38.86324219 -20.11585937 38.22257812 -19.1875 37.5625 C-18.29417969 36.92441406 -17.40085937 36.28632812 -16.48046875 35.62890625 C-12.30874673 32.88936597 -8.92420359 32.56805232 -4 33 C-1.09645714 34.98663459 -0.1975502 36.45673695 1 39.75 C1 44.36917666 -0.14135265 47.36894036 -3 51 C-9.23007808 56.3417151 -15.8419677 58.32575476 -24 58 C-24.66 57.67 -25.32 57.34 -26 57 C-26 57.66 -26 58.32 -26 59 C-27.32 59 -28.64 59 -30 59 C-30.12246094 60.134375 -30.24492188 61.26875 -30.37109375 62.4375 C-30.94706736 67.04528886 -31.95752347 71.49419463 -33.0625 76 C-33.24876953 76.77472656 -33.43503906 77.54945312 -33.62695312 78.34765625 C-34.08076178 80.23270759 -34.53982492 82.1164927 -35 84 C-38.3 84 -41.6 84 -45 84 C-43.71878403 76.68974986 -42.25713963 69.4690866 -40.5390625 62.25 C-40.3072226 61.27063477 -40.07538269 60.29126953 -39.83651733 59.28222656 C-39.34896283 57.22814208 -38.85981909 55.17443422 -38.36914062 53.12109375 C-37.62724045 50.00939695 -36.89548124 46.89542481 -36.1640625 43.78125 C-35.68551597 41.77068563 -35.20636916 39.76026402 -34.7265625 37.75 C-34.40602402 36.37763184 -34.40602402 36.37763184 -34.07901001 34.97753906 C-30.9179397 21.8781186 -27.08933771 11.28561837 -16 3 C-10.93903507 0.14745613 -5.76817585 -1.14022081 0 0 Z M-18.8984375 42.40234375 C-25.70962453 47.50338358 -25.70962453 47.50338358 -29 55 C-22.18489909 54.74944482 -15.54765583 54.37972828 -10 50 C-8.16023654 47.12718323 -7.97091085 46.25210597 -8.375 42.75 C-8.58125 41.8425 -8.7875 40.935 -9 40 C-13.4143277 38.43394139 -15.20869217 39.92178462 -18.8984375 42.40234375 Z " fill="#BF1A1A" transform="translate(79,1)"/>
<path d="M0 0 C3.52636842 1.17545614 4.25642432 1.76712009 6 5 C6.17207827 8.40930074 6.06979299 11.66843075 5.8828125 15.06835938 C5.72842589 19.644207 6.23445446 22.31980789 9 26 C15.42946528 25.76620126 18.95745142 24.09770583 24.1171875 20.27734375 C26 19 26 19 28 19 C28.495 21.475 28.495 21.475 29 24 C26.94047642 25.29662538 24.87762943 26.58735727 22.8125 27.875 C22.23435547 28.23980469 21.65621094 28.60460937 21.06054688 28.98046875 C14.41906392 33.10794403 8.86776736 35.29191582 1 34 C-2.34625024 31.47323961 -3.67977847 29.96066458 -5 26 C-5.89126755 16.66360713 -4.19499891 8.38999782 0 0 Z " fill="#0D105C" transform="translate(67,94)"/>
<path d="M0 0 C1 1 1 1 1.1875 3.4375 C1 6 1 6 -1 8 C-4.71516862 8.42217825 -6.65635528 8.17898163 -10 6.4375 C-12.91546382 4.78597892 -12.91546382 4.78597892 -16.125 4.9375 C-19.97595088 6.3606775 -20.94353007 8.54806834 -23 12 C-23.66 12 -24.32 12 -25 12 C-25.66 10.35 -26.32 8.7 -27 7 C-19.62384865 -0.81004261 -10.14033131 -7.45612596 0 0 Z " fill="#10135D" transform="translate(100,79)"/>
<path d="M0 0 C0.33 1.65 0.66 3.3 1 5 C-1.119212 6.36405618 -3.24448118 7.71631775 -5.375 9.0625 C-5.97828125 9.45244141 -6.5815625 9.84238281 -7.203125 10.24414062 C-8.76492557 11.22460432 -10.37992214 12.11916075 -12 13 C-12.66 12.67 -13.32 12.34 -14 12 C-14 11.34 -14 10.68 -14 10 C-16.97 9.505 -16.97 9.505 -20 9 C-19.67 8.34 -19.34 7.68 -19 7 C-17.845 6.9175 -16.69 6.835 -15.5 6.75 C-10.70049502 6.30816831 -7.6882833 4.09498328 -3.8828125 1.27734375 C-2 0 -2 0 0 0 Z " fill="#1E2067" transform="translate(95,113)"/>
<path d="M0 0 C0.99 0.33 1.98 0.66 3 1 C2.67 1.99 2.34 2.98 2 4 C8.435 3.505 8.435 3.505 15 3 C14.34 3.66 13.68 4.32 13 5 C14.98 5 16.96 5 19 5 C16.60236815 7.39763185 15.66726502 7.34280586 12.375 7.625 C11.55773438 7.69976562 10.74046875 7.77453125 9.8984375 7.8515625 C9.27195312 7.90054688 8.64546875 7.94953125 8 8 C8 7.34 8 6.68 8 6 C5.36 6 2.72 6 0 6 C-1.125 2.25 -1.125 2.25 0 0 Z " fill="#C52C2D" transform="translate(49,51)"/>
<path d="M0 0 C0.66 0.33 1.32 0.66 2 1 C1.21625 1.721875 0.4325 2.44375 -0.375 3.1875 C-2.89116255 5.88338845 -3.72965661 7.64266391 -5 11 C-5.99 11.66 -6.98 12.32 -8 13 C-9.23076923 7.58461538 -9.23076923 7.58461538 -8.0625 4.625 C-7.711875 4.08875 -7.36125 3.5525 -7 3 C-6.67 3.66 -6.34 4.32 -6 5 C-4.02 3.35 -2.04 1.7 0 0 Z " fill="#C63636" transform="translate(60,38)"/>
<path d="M0 0 C0.66 0.33 1.32 0.66 2 1 C0.68 6.61 -0.64 12.22 -2 18 C-2.33 18 -2.66 18 -3 18 C-3.05447047 16.58376784 -3.09300508 15.16691809 -3.125 13.75 C-3.14820313 12.96109375 -3.17140625 12.1721875 -3.1953125 11.359375 C-2.9828378 8.79268059 -2.28654105 7.2083933 -1 5 C-1.66 4.34 -2.32 3.68 -3 3 C-2.01 2.01 -1.02 1.02 0 0 Z " fill="#C42E2E" transform="translate(60,6)"/>
<path d="M0 0 C0.33 1.65 0.66 3.3 1 5 C-0.98 5.99 -0.98 5.99 -3 7 C-3 6.01 -3 5.02 -3 4 C-6.72614153 5.11854586 -6.72614153 5.11854586 -9 8 C-9.66 7.34 -10.32 6.68 -11 6 C-9.54550599 4.9944239 -8.08627557 3.99569565 -6.625 3 C-5.40683594 2.1646875 -5.40683594 2.1646875 -4.1640625 1.3125 C-2 0 -2 0 0 0 Z " fill="#292A6B" transform="translate(95,113)"/>
<path d="M0 0 C1.43791516 0.14168137 2.8753237 0.28851043 4.3125 0.4375 C5.11300781 0.51871094 5.91351563 0.59992188 6.73828125 0.68359375 C9 1 9 1 12 2 C9.36 2.66 6.72 3.32 4 4 C4.33 4.66 4.66 5.32 5 6 C2.36 5.67 -0.28 5.34 -3 5 C-2.01 4.34 -1.02 3.68 0 3 C0 2.01 0 1.02 0 0 Z " fill="#C32626" transform="translate(83,101)"/>
<path d="M0 0 C2.97 0.495 2.97 0.495 6 1 C4.68 3.31 3.36 5.62 2 8 C1.34 8 0.68 8 0 8 C-1.125 5.6875 -1.125 5.6875 -2 3 C-1.34 2.01 -0.68 1.02 0 0 Z " fill="#232568" transform="translate(75,83)"/>
<path d="M0 0 C-1.0625 1.5 -1.0625 1.5 -3 3 C-6.5625 3.3125 -6.5625 3.3125 -10 3 C-10.66 2.34 -11.32 1.68 -12 1 C-7.58774263 -0.47075246 -4.51718381 -1.36884358 0 0 Z " fill="#BE1414" transform="translate(98,104)"/>
<path d="M0 0 C0.99 0.33 1.98 0.66 3 1 C2.360625 1.268125 1.72125 1.53625 1.0625 1.8125 C-1.33131686 2.88667752 -1.33131686 2.88667752 -2 6 C-3.95597184 7.39712274 -5.95436401 8.73779907 -8 10 C-7.4346089 6.49304707 -6.31277274 4.97267387 -3.625 2.6875 C-3.01914062 2.15511719 -2.41328125 1.62273438 -1.7890625 1.07421875 C-0.90347656 0.54248047 -0.90347656 0.54248047 0 0 Z " fill="#BE1212" transform="translate(64,37)"/>
<path d="M0 0 C0 1.65 0 3.3 0 5 C-3.3 5.33 -6.6 5.66 -10 6 C-8.68 5.34 -7.36 4.68 -6 4 C-6 3.34 -6 2.68 -6 2 C-2.25 0 -2.25 0 0 0 Z " fill="#BD1010" transform="translate(70,51)"/>
<path d="M0 0 C0.66 0 1.32 0 2 0 C2 0.66 2 1.32 2 2 C4.475 2.99 4.475 2.99 7 4 C6.401875 4.144375 5.80375 4.28875 5.1875 4.4375 C3.43849596 4.8872439 1.71322977 5.42892341 0 6 C-0.99 4.68 -1.98 3.36 -3 2 C-2.01 2 -1.02 2 0 2 C0 1.34 0 0.68 0 0 Z " fill="#C42C2C" transform="translate(53,58)"/>
<path d="M0 0 C-0.875 3.875 -0.875 3.875 -2 5 C-4.67058851 5.14115161 -7.32432238 5.04247107 -10 5 C-9.4225 4.731875 -8.845 4.46375 -8.25 4.1875 C-5.94252104 3.04946754 -5.94252104 3.04946754 -3.875 1.375 C-2 0 -2 0 0 0 Z " fill="#060854" transform="translate(92,117)"/>
</svg>
